name D:\school\WTK\thesis\model\3dpredictsim\Results\test_WL_v2\Fal_s1_bCst_PF_Natali2010_ls135_k_nonl150_Mmtp_ig24_v3.mot
datacolumns 128
datarows 4
range 0.56920172 0.60335382
endheader
time	pelvis_tilt	pelvis_list	pelvis_rotation	pelvis_tx	pelvis_ty	pelvis_tz	hip_flexion_l	hip_adduction_l	hip_rotation_l	hip_flexion_r	hip_adduction_r	hip_rotation_r	knee_angle_l	knee_angle_r	ankle_angle_l	ankle_angle_r	subtalar_angle_l	subtalar_angle_r	tmt_angle_l	tmt_angle_r	mtp_angle_l	mtp_angle_r	lumbar_extension	lumbar_bending	lumbar_rotation	arm_flex_l	arm_add_l	arm_rot_l	arm_flex_r	arm_add_r	arm_rot_r	elbow_flex_l	elbow_flex_r	pro_sup_l	pro_sup_r	glut_med1_l/activation	glut_med2_l/activation	glut_med3_l/activation	glut_min1_l/activation	glut_min2_l/activation	glut_min3_l/activation	semimem_l/activation	semiten_l/activation	bifemlh_l/activation	bifemsh_l/activation	sar_l/activation	add_long_l/activation	add_brev_l/activation	add_mag1_l/activation	add_mag2_l/activation	add_mag3_l/activation	tfl_l/activation	pect_l/activation	grac_l/activation	glut_max1_l/activation	glut_max2_l/activation	glut_max3_l/activation	iliacus_l/activation	psoas_l/activation	quad_fem_l/activation	gem_l/activation	peri_l/activation	rect_fem_l/activation	vas_med_l/activation	vas_int_l/activation	vas_lat_l/activation	med_gas_l/activation	lat_gas_l/activation	soleus_l/activation	tib_post_l/activation	flex_dig_l/activation	flex_hal_l/activation	tib_ant_l/activation	per_brev_l/activation	per_long_l/activation	per_tert_l/activation	ext_dig_l/activation	ext_hal_l/activation	ercspn_l/activation	intobl_l/activation	extobl_l/activation	glut_med1_r/activation	glut_med2_r/activation	glut_med3_r/activation	glut_min1_r/activation	glut_min2_r/activation	glut_min3_r/activation	semimem_r/activation	semiten_r/activation	bifemlh_r/activation	bifemsh_r/activation	sar_r/activation	add_long_r/activation	add_brev_r/activation	add_mag1_r/activation	add_mag2_r/activation	add_mag3_r/activation	tfl_r/activation	pect_r/activation	grac_r/activation	glut_max1_r/activation	glut_max2_r/activation	glut_max3_r/activation	iliacus_r/activation	psoas_r/activation	quad_fem_r/activation	gem_r/activation	peri_r/activation	rect_fem_r/activation	vas_med_r/activation	vas_int_r/activation	vas_lat_r/activation	med_gas_r/activation	lat_gas_r/activation	soleus_r/activation	tib_post_r/activation	flex_dig_r/activation	flex_hal_r/activation	tib_ant_r/activation	per_brev_r/activation	per_long_r/activation	per_tert_r/activation	ext_dig_r/activation	ext_hal_r/activation	ercspn_r/activation	intobl_r/activation	extobl_r/activation	
          0.56920172	         -2.92885867	          2.58687009	         -5.24387457	          0.71150215	          0.91969912	          0.00156419	         28.56540135	          4.34546081	         -2.19714629	        -15.90340198	         -0.64607079	          7.19100472	         -9.45953732	        -10.11652980	          7.55710529	         -0.33606177	         -8.76776568	          2.40195595	         -5.33641001	          2.15240143	          4.20385154	          8.76900569	         -1.95429355	         -0.70695608	          2.35058907	         -5.42761614	        -13.46862319	          8.01727020	          6.53159668	        -13.45043264	         19.02843761	         14.87684706	         34.19317714	         86.51662706	         86.51662706	          0.10233593	          0.05948678	          0.05000101	          0.07013770	          0.05948874	          0.05008921	          0.23550244	          0.05949047	          0.08789689	          0.05254414	          0.05000231	          0.11915231	          0.23786384	          0.16284056	          0.16587570	          0.10071036	          0.05000235	          0.05016380	          0.11615303	          0.05000520	          0.05000582	          0.07901963	          0.05947033	          0.05001141	          0.47844219	          0.19927236	          0.13579881	          0.07079455	          0.15524105	          0.15451738	          0.12991071	          0.05000285	          0.05282894	          0.05000048	          0.05000523	          0.08145571	          0.05002825	          0.53430004	          0.31767694	          0.20736373	          0.18845960	          0.41998909	          0.14434647	          0.05000099	          0.12216892	          0.11918135	          0.32344126	          0.08421935	          0.05948611	          0.29932821	          0.17341029	          0.09779112	          0.05001344	          0.05000229	          0.05000173	          0.05000301	          0.09545197	          0.05357811	          0.06411358	          0.05001015	          0.05001655	          0.05001108	          0.27314989	          0.05942020	          0.05000848	          0.05000787	          0.05000527	          0.05000481	          0.40502202	          0.56407848	          0.05000083	          0.05000413	          0.05000515	          0.29955487	          0.06332330	          0.05871998	          0.13528273	          0.25284424	          0.34616199	          0.31392399	          0.27617182	          0.21153317	          0.26971554	          0.05000024	          0.05433760	          0.08955926	          0.05000155	          0.05000054	          0.05000222	          0.05000016	          0.07077395	          0.05000220	
          0.58058576	         -2.93017604	          2.68673195	         -5.56172434	          0.72875732	          0.91890595	          0.00143793	         27.86373435	          4.62599077	         -1.93869943	        -16.05169535	         -0.98033166	          7.01094798	         -9.88603668	        -11.49477196	          6.93572176	         -0.80305282	         -8.99695994	          3.31223683	         -5.40660566	          0.73739903	          3.57156431	         11.70896462	         -1.73387459	         -0.88924295	          2.41790373	         -6.31573278	        -13.46249838	          7.92400723	          6.17731764	        -13.45181526	         19.15406893	         14.51717132	         35.42982223	         86.51662706	         86.51662706	          0.15480232	          0.05000068	          0.12562885	          0.05895262	          0.05000204	          0.05000105	          0.21862849	          0.05000565	          0.09017909	          0.05000061	          0.05001123	          0.10015126	          0.19993360	          0.16558579	          0.13942599	          0.09898510	          0.05000311	          0.06037373	          0.09766556	          0.05001131	          0.09146670	          0.08899695	          0.05000455	          0.05001135	          0.40214313	          0.16749366	          0.11414324	          0.05950460	          0.13048412	          0.12987587	          0.10919334	          0.05949285	          0.06663112	          0.05948651	          0.05000652	          0.06846889	          0.05001325	          0.53471310	          0.37531825	          0.24048126	          0.15840511	          0.35301133	          0.12132687	          0.05000008	          0.10811032	          0.10017485	          0.33374301	          0.07078857	          0.05000168	          0.25159416	          0.14575597	          0.08219611	          0.05001738	          0.05000790	          0.05000534	          0.05000139	          0.08023148	          0.07648050	          0.05948518	          0.05948472	          0.05944684	          0.05948824	          0.22959014	          0.05001743	          0.05001394	          0.05005400	          0.05005897	          0.05845959	          0.34043377	          0.57237257	          0.05000733	          0.05000874	          0.05000080	          0.25178331	          0.10215553	          0.14186199	          0.13012873	          0.21252172	          0.29095761	          0.26386071	          0.23212951	          0.22203813	          0.27503303	          0.05000012	          0.05000195	          0.11443040	          0.05000060	          0.05000044	          0.05000120	          0.05000046	          0.05948736	          0.06258016	
          0.59196979	         -2.93009084	          2.78449563	         -5.84747125	          0.74627349	          0.91816018	          0.00131397	         27.05173108	          4.85038702	         -1.67124809	        -16.17721311	         -1.31884133	          6.83230479	        -10.30347754	        -12.87752999	          6.24172862	         -1.38456611	         -9.22938872	          4.22241978	         -5.37839480	         -0.91908830	          3.01512865	         15.09340313	         -1.49975737	         -1.07856515	          2.47441114	         -7.21994427	        -13.45991668	          7.85651516	          5.74523285	        -13.45385699	         19.20459210	         14.21307279	         36.64148546	         86.51662706	         86.51662706	          0.25648040	          0.23111945	          0.28065997	          0.22138896	          0.19227122	          0.18074011	          0.18376267	          0.07347627	          0.07579799	          0.10017416	          0.05005448	          0.08417989	          0.16804936	          0.13917999	          0.11719307	          0.12272565	          0.05000356	          0.05075074	          0.10289328	          0.16223672	          0.13513439	          0.07870389	          0.05000178	          0.05000140	          0.33801150	          0.14078347	          0.18815637	          0.05001523	          0.10967542	          0.10916421	          0.09177995	          0.05000550	          0.05600611	          0.05000018	          0.05000043	          0.13811691	          0.05000140	          0.62191706	          0.41085286	          0.24227443	          0.44102059	          0.41716296	          0.11422730	          0.06083039	          0.12357958	          0.08419942	          0.33197959	          0.05949971	          0.05000040	          0.40709006	          0.12251194	          0.06908828	          0.05001079	          0.05000120	          0.05000087	          0.05000842	          0.07077829	          0.07920709	          0.05000248	          0.05000254	          0.05000459	          0.05000431	          0.19297889	          0.07672827	          0.05000344	          0.05000595	          0.05000340	          0.05000207	          0.32591606	          0.56509062	          0.05000041	          0.05000233	          0.05000170	          0.21163103	          0.08586584	          0.18621499	          0.19284967	          0.17862964	          0.24455694	          0.22178129	          0.19511062	          0.25332702	          0.30412364	          0.05065731	          0.05000437	          0.11724252	          0.05000364	          0.09344010	          0.05001208	          0.05000093	          0.05000061	          0.05260022	
          0.60335382	         -2.92965781	          2.87126387	         -6.09529071	          0.76385358	          0.91751591	          0.00116011	         26.24413104	          5.06898253	         -1.40665921	        -16.24845645	         -1.65178796	          6.66948130	        -10.74012013	        -14.28623632	          5.60495952	         -2.09861922	         -9.44583076	          5.15385580	         -5.30692105	         -2.82061244	          2.52006152	         18.94032387	         -1.27271294	         -1.26706672	          2.52301435	         -8.09614728	        -13.45616890	          7.81433901	          5.26914481	        -13.46117143	         19.20205635	         13.94584260	         37.80163937	         86.51662706	         86.51662706	          0.35476676	          0.32844895	          0.36838403	          0.18608697	          0.18158372	          0.22452553	          0.15649658	          0.07012513	          0.07585848	          0.08419912	          0.05000408	          0.07075563	          0.14125009	          0.11698606	          0.09850763	          0.15236416	          0.05000303	          0.05000913	          0.08648598	          0.22984114	          0.18144189	          0.13365370	          0.05000074	          0.05000080	          0.28410733	          0.11833275	          0.15816589	          0.05000061	          0.13006625	          0.13076639	          0.10976248	          0.05000022	          0.05000048	          0.05000014	          0.05000130	          0.11609483	          0.11811304	          0.72616602	          0.44739867	          0.24384191	          0.53887311	          0.44741374	          0.09601128	          0.08157179	          0.10387180	          0.07077170	          0.36164752	          0.05001147	          0.05000089	          0.34217070	          0.10297469	          0.05807118	          0.05000983	          0.05000148	          0.05000125	          0.05000105	          0.05949301	          0.09499528	          0.09815918	          0.05002256	          0.05003141	          0.05002160	          0.16220491	          0.06452619	          0.05000514	          0.05001769	          0.05001228	          0.05001022	          0.27394077	          0.54759560	          0.05000159	          0.05000470	          0.05000090	          0.17788112	          0.16870012	          0.16869935	          0.16212500	          0.15014254	          0.20555604	          0.18641252	          0.16399529	          0.21293775	          0.27739758	          0.10820456	          0.11702661	          0.09854599	          0.05000589	          0.14779772	          0.05001372	          0.05944197	          0.05000015	          0.05000025	
